<svg width="20" height="20" viewBox="0 0 20 20" fill="none" xmlns="http://www.w3.org/2000/svg">
<g filter="url(#filter0_i_1:386)">
<path d="M13.8115 6.89556L12.2459 6.83813L11.9065 16.107L13.4721 16.1642L13.8115 6.89556Z" fill="#E12929"/>
<path d="M10.7833 6.86685H9.21671V16.1358H10.7833V6.86685Z" fill="#E12929"/>
<path d="M8.09319 16.1068L7.75378 6.83786L6.18823 6.89532L6.52769 16.1642L8.09319 16.1068Z" fill="#E12929"/>
<path d="M0.678864 3.00262V4.56919H2.31125L3.60625 19.2854C3.64175 19.6898 3.98043 20 4.3864 20H15.5872C15.9932 20 16.3321 19.6896 16.3673 19.2851L17.6624 4.56919H19.3211V3.00262H0.678864ZM14.8697 18.4334H5.10367L3.88383 4.56919H16.0898L14.8697 18.4334Z" fill="#E12929"/>
<path d="M12.5587 0H7.44124C6.7214 0 6.13577 0.585625 6.13577 1.30547V3.7859H7.70234V1.56656H12.2976V3.7859H13.8642V1.30547C13.8642 0.585625 13.2786 0 12.5587 0Z" fill="#E12929"/>
</g>
<defs>
<filter id="filter0_i_1:386" x="0" y="0" width="20" height="21" filterUnits="userSpaceOnUse" color-interpolation-filters="sRGB">
<feFlood flood-opacity="0" result="BackgroundImageFix"/>
<feBlend mode="normal" in="SourceGraphic" in2="BackgroundImageFix" result="shape"/>
<feColorMatrix in="SourceAlpha" type="matrix" values="0 0 0 0 0 0 0 0 0 0 0 0 0 0 0 0 0 0 127 0" result="hardAlpha"/>
<feOffset dy="2"/>
<feGaussianBlur stdDeviation="0.5"/>
<feComposite in2="hardAlpha" operator="arithmetic" k2="-1" k3="1"/>
<feColorMatrix type="matrix" values="0 0 0 0 0 0 0 0 0 0 0 0 0 0 0 0 0 0 0.25 0"/>
<feBlend mode="normal" in2="shape" result="effect1_innerShadow_1:386"/>
</filter>
</defs>
</svg>
