<svg width="26" height="29" viewBox="0 0 26 29" fill="none" xmlns="http://www.w3.org/2000/svg">
<g filter="url(#filter0_ii)">
<path d="M24 11.0359C26.6667 12.5755 26.6667 16.4245 24 17.9641L6.75 27.9234C4.08333 29.463 0.749999 27.5385 0.749999 24.4593L0.75 4.54071C0.75 1.46151 4.08333 -0.462996 6.75 1.07661L24 11.0359Z" fill="url(#paint0_radial)" fill-opacity="0.65"/>
</g>
<path d="M23.75 11.4689C26.0833 12.8161 26.0833 16.1839 23.75 17.5311L6.5 27.4904C4.16667 28.8375 1.25 27.1536 1.25 24.4593L1.25 4.54071C1.25 1.84641 4.16667 0.162467 6.5 1.50962L23.75 11.4689Z" stroke="#419833"/>
<defs>
<filter id="filter0_ii" x="0.75" y="-1.46526" width="27.25" height="30.9305" filterUnits="userSpaceOnUse" color-interpolation-filters="sRGB">
<feFlood flood-opacity="0" result="BackgroundImageFix"/>
<feBlend mode="normal" in="SourceGraphic" in2="BackgroundImageFix" result="shape"/>
<feColorMatrix in="SourceAlpha" type="matrix" values="0 0 0 0 0 0 0 0 0 0 0 0 0 0 0 0 0 0 127 0" result="hardAlpha"/>
<feOffset dy="3"/>
<feGaussianBlur stdDeviation="0.5"/>
<feComposite in2="hardAlpha" operator="arithmetic" k2="-1" k3="1"/>
<feColorMatrix type="matrix" values="0 0 0 0 1 0 0 0 0 1 0 0 0 0 1 0 0 0 0.41 0"/>
<feBlend mode="normal" in2="shape" result="effect1_innerShadow"/>
<feColorMatrix in="SourceAlpha" type="matrix" values="0 0 0 0 0 0 0 0 0 0 0 0 0 0 0 0 0 0 127 0" result="hardAlpha"/>
<feOffset dx="2" dy="-2"/>
<feGaussianBlur stdDeviation="1"/>
<feComposite in2="hardAlpha" operator="arithmetic" k2="-1" k3="1"/>
<feColorMatrix type="matrix" values="0 0 0 0 0.0374306 0 0 0 0 0.195903 0 0 0 0 0.0437694 0 0 0 0.3 0"/>
<feBlend mode="normal" in2="effect1_innerShadow" result="effect2_innerShadow"/>
</filter>
<radialGradient id="paint0_radial" cx="0" cy="0" r="1" gradientUnits="userSpaceOnUse" gradientTransform="translate(10.5 14.5) rotate(-180) scale(19.5)">
<stop stop-color="#0FC000" stop-opacity="0.79"/>
<stop offset="1" stop-color="#0EAE00"/>
</radialGradient>
</defs>
</svg>
